<svg xmlns="http://www.w3.org/2000/svg" viewBox="0 0 15.008 15.007">
  <defs>
    <style>
      .cls-1 {
        fill: #8e8e93;
        stroke: rgba(0,0,0,0);
        fill-rule: evenodd;
      }
    </style>
  </defs>
  <path id="Search" class="cls-1" d="M13.743,12.574,9.91,8.74a5.425,5.425,0,0,0,1.05-3.232A5.531,5.531,0,0,0,5.461,0,5.436,5.436,0,0,0,0,5.468a5.532,5.532,0,0,0,5.5,5.508A5.409,5.409,0,0,0,8.742,9.915l0,0,3.83,3.832a.826.826,0,1,0,1.168-1.169ZM5.5,9.878A4.426,4.426,0,0,1,1.1,5.472,4.35,4.35,0,0,1,5.464,1.1,4.426,4.426,0,0,1,9.864,5.5,4.35,4.35,0,0,1,5.5,9.878Z" transform="translate(0.5 0.5)"/>
</svg>
