<svg xmlns="http://www.w3.org/2000/svg" xmlns:xlink="http://www.w3.org/1999/xlink" viewBox="0 0 72.5 71.066">
  <defs>
    <style>
      .cls-1 {
        fill: #2699fb;
      }

      .cls-2 {
        fill: #fff;
        font-size: 17px;
        font-family: ArialMT, Arial;
        letter-spacing: -0.011em;
      }

      .cls-3 {
        filter: url(#Rectangle_31);
      }

      .cls-4 {
        filter: url(#Ellipse_14);
      }
    </style>
    <filter id="Ellipse_14" x="12.908" y="0" width="46.684" height="46.684" filterUnits="userSpaceOnUse">
      <feOffset dy="3" input="SourceAlpha"/>
      <feGaussianBlur stdDeviation="3" result="blur"/>
      <feFlood flood-opacity="0.161"/>
      <feComposite operator="in" in2="blur"/>
      <feComposite in="SourceGraphic"/>
    </filter>
    <filter id="Rectangle_31" x="0" y="27.25" width="72.5" height="43.816" filterUnits="userSpaceOnUse">
      <feOffset dy="3" input="SourceAlpha"/>
      <feGaussianBlur stdDeviation="3" result="blur-2"/>
      <feFlood flood-opacity="0.161"/>
      <feComposite operator="in" in2="blur-2"/>
      <feComposite in="SourceGraphic"/>
    </filter>
  </defs>
  <g id="btn_NewContact" transform="translate(-151 -594)">
    <g id="Group_1106" data-name="Group 1106">
      <g class="cls-4" transform="matrix(1, 0, 0, 1, 151, 594)">
        <circle id="Ellipse_14-2" data-name="Ellipse 14" class="cls-1" cx="14.342" cy="14.342" r="14.342" transform="translate(21.91 6)"/>
      </g>
      <g class="cls-3" transform="matrix(1, 0, 0, 1, 151, 594)">
        <path id="Rectangle_31-2" data-name="Rectangle 31" class="cls-1" d="M20.653,0H33.847A20.653,20.653,0,0,1,54.5,20.653v0a5.163,5.163,0,0,1-5.163,5.163H5.163A5.163,5.163,0,0,1,0,20.653v0A20.653,20.653,0,0,1,20.653,0Z" transform="translate(9 33.25)"/>
      </g>
    </g>
    <text id="Placeholder_Label" data-name="Placeholder Label" class="cls-2" transform="translate(187 647)"><tspan x="-16.817" y="0">New</tspan></text>
  </g>
</svg>
