<svg xmlns="http://www.w3.org/2000/svg" xmlns:xlink="http://www.w3.org/1999/xlink" viewBox="0 0 60 60">
  <defs>
    <style>
      .cls-1 {
        fill: #fff;
      }

      .cls-2 {
        fill: #2699fb;
      }

      .cls-3 {
        filter: url(#Ellipse_368);
      }
    </style>
    <filter id="Ellipse_368" x="0" y="0" width="60" height="60" filterUnits="userSpaceOnUse">
      <feOffset dy="3" input="SourceAlpha"/>
      <feGaussianBlur stdDeviation="3" result="blur"/>
      <feFlood flood-opacity="0.161"/>
      <feComposite operator="in" in2="blur"/>
      <feComposite in="SourceGraphic"/>
    </filter>
  </defs>
  <g id="btn_EventMap" transform="translate(-865 -525)">
    <g class="cls-3" transform="matrix(1, 0, 0, 1, 865, 525)">
      <circle id="Ellipse_368-2" data-name="Ellipse 368" class="cls-1" cx="21" cy="21" r="21" transform="translate(9 6)"/>
    </g>
    <path id="Path_760" data-name="Path 760" class="cls-2" d="M6.3,6.3A19.064,19.064,0,0,1,21,0,19.064,19.064,0,0,1,35.7,6.3,19.064,19.064,0,0,1,42,21a19.064,19.064,0,0,1-6.3,14.7A19.064,19.064,0,0,1,21,42,19.064,19.064,0,0,1,6.3,35.7C2.45,31.5,0,26.95,0,21A19.064,19.064,0,0,1,6.3,6.3ZM23.8,37.8q2.1,0,5.25-3.15A15.287,15.287,0,0,0,31.5,27.3a5.8,5.8,0,0,0-1.75-4.2A6.161,6.161,0,0,0,25.2,21H21.7a10.22,10.22,0,0,1-3.15-.7,3.177,3.177,0,0,1-1.05-2.45,1.818,1.818,0,0,1,.7-1.4,2.653,2.653,0,0,1,1.4-.7,2.389,2.389,0,0,1,1.75,1.05c.7.35,1.05.7,1.4.7a2.1,2.1,0,0,0,1.4-.35,2.1,2.1,0,0,0,.35-1.4,5.57,5.57,0,0,0-1.75-3.5A14.477,14.477,0,0,0,24.5,5.6a.753.753,0,0,0-.7-.7A10.82,10.82,0,0,0,21,4.2c-3.85.35-6.65,1.05-9.1,2.8a8.812,8.812,0,0,0-3.15,7,8.962,8.962,0,0,0,2.8,6.65,9.562,9.562,0,0,0,6.65,2.8h0v1.4a4.494,4.494,0,0,0,1.4,3.5,5.1,5.1,0,0,0,3.15,2.1v6.3c0,.35,0,.35.35.7S23.45,37.8,23.8,37.8Z" transform="translate(874 531)"/>
  </g>
</svg>
