<svg xmlns="http://www.w3.org/2000/svg" xmlns:xlink="http://www.w3.org/1999/xlink" viewBox="0 0 60 60">
  <defs>
    <style>
      .cls-1 {
        fill: #2699fb;
      }

      .cls-2 {
        fill: none;
      }

      .cls-3 {
        fill: #fff;
        fill-rule: evenodd;
      }

      .cls-4 {
        filter: url(#Search_Field);
      }
    </style>
    <filter id="Search_Field" x="0" y="0" width="60" height="60" filterUnits="userSpaceOnUse">
      <feOffset dy="6" input="SourceAlpha"/>
      <feGaussianBlur stdDeviation="3" result="blur"/>
      <feFlood flood-opacity="0.161"/>
      <feComposite operator="in" in2="blur"/>
      <feComposite in="SourceGraphic"/>
    </filter>
  </defs>
  <g id="btn_EventActive_Map" transform="translate(-121 -554)">
    <g class="cls-4" transform="matrix(1, 0, 0, 1, 121, 554)">
      <rect id="Search_Field-2" data-name="Search Field" class="cls-1" width="42" height="42" rx="21" transform="translate(9 3)"/>
    </g>
    <g id="Places" transform="translate(-2227 -11810)">
      <rect id="Rectangle_305" data-name="Rectangle 305" class="cls-2" width="24.784" height="24.784" transform="translate(2366 12376)"/>
      <path id="Path_114" data-name="Path 114" class="cls-3" d="M10.21,14.743a4.33,4.33,0,0,0,4.337-4.337A4.463,4.463,0,0,0,10.21,5.914a4.33,4.33,0,0,0-4.337,4.337A4.572,4.572,0,0,0,10.21,14.743ZM2.929,2.971A10.3,10.3,0,1,1,17.49,17.531l-7.28,7.28-7.28-7.28A10.577,10.577,0,0,1,2.929,2.971Z" transform="translate(2367.524 12376.05)"/>
    </g>
  </g>
</svg>
